<?xml version="1.0" encoding="UTF-8"?>
<svg xmlns="http://www.w3.org/2000/svg" version="1.1" viewBox="0 0 202.302083 69.833333">
  <!-- Generator: Adobe Illustrator 29.8.1, SVG Export Plug-In . SVG Version: 2.1.1 Build 2)  -->
  <defs>
    <style>
      .st0 {
        fill: #ff8000;
      }

      .st1, .st2 {
        fill: #ffe200;
      }

      .st2 {
        stroke: #000;
        stroke-width: 2px;
      }

      .st3 {
        fill: red;
      }
    </style>
  </defs>
  <g id="Yellow_Back">
    <rect class="st2" x="1.020764" y=".999027" width="200.243902" height="67.804878" rx="9" ry="9"/>
  </g>
  <g id="Layer_1">
    <g>
      <path d="M92.399988,45.541978c-2.238577,0-5.307903.151823-7.904435.151823h-2.374185v-20.01836c.076971-2.096528,2.789559-2.215809,2.873078-3.580324v-1.926158c-.352513-1.885065-1.853634-2.117186-3.08132-2.107412-.362282,0-.712577.017322-1.00545.017322h-7.739729c-.292761,0-.643159-.017322-1.00756-.017322-1.225576-.009774-2.729918.222347-3.082431,2.107412v1.926158c.08463,1.364515,2.799337,1.483796,2.874188,3.580324v1.341636h.004331v19.892526c.079188.89261-3.583434,1.853634-3.646407,3.298225v1.9577c0,.555313.077077.957693.356844,1.223465.281988.262441.71913.352513,1.378509.352513h17.270009c.063977-.007663.111734-.010884.156159-.010884,1.317864-.046646,2.185485,2.484803,4.868757,2.502129.193138,0,.397049-.012994.612843-.044425,2.171384-.069414,2.206036-2.829652,2.310213-3.05311.329634-.855737.005442-4.339437.337297-6.988057.003221-.011995.003221-.021657.003221-.031431-.119281-.573749-1.369846-.529324-3.203933-.573749Z"/>
      <path d="M104.571335,27.756753c-9.729859.012994-14.563858,5.854664-14.575853,13.548743.011995,7.698525,4.845993,13.540083,14.575853,13.555299,9.725639-.015216,14.559637-5.856774,14.576963-13.555299-.017326-7.694079-4.851324-13.535749-14.576963-13.548743ZM105.38809,48.433492c-3.622528-.007663-6.288474-4.350321-6.292806-9.207199.019436-3.830768,1.90017-5.028133,4.657187-5.04768,3.623639.008663,6.286364,4.353539,6.293916,9.207196-.017326,3.833991-1.898059,5.030357-4.658298,5.047683Z"/>
      <path d="M188.458343,38.536595c-3.481582-1.136723-6.886102-1.671378-6.826461-3.411062.009774-.781992.510888-1.440371,1.746237-1.452368,1.338304-.003218,3.095425.041318,3.966378.838414.830748.836301,1.21036,2.672499,3.061773,2.683272h1.660497c1.073753.007663,1.136614-.574749,1.553099-2.526007l.553203-2.989138c-.036873-2.310216-3.791787-3.909958-9.861135-3.924063-5.564013.009774-11.137688,2.612858-11.137688,8.663769,0,4.40563,3.529235,6.241825,6.988057,7.403429,3.479368,1.148609,6.886102,1.761453,6.82635,3.383966.003332,1.310205-1.250454,1.958811-2.441378,2.013009-.210464.007552-.412153.009774-.610622.009774-4.940286-.009774-5.851443-2.523897-7.292813-3.908847-.335187-.28532-1.340525-.28532-1.357962-.297203-.11606-.009774-.240784-.019547-.354623-.019547-1.084637-.003221-1.535773.707135-2.104081,3.300447-.406711,1.811209-.441474,2.680051-.441474,2.687603l.121502.004331h-.121502c.081298,3.003243,7.233172,4.288459,11.504306,4.321001,6.901317-.010773,11.546628-2.862194,11.558504-9.008619.003332-4.739707-3.531449-6.625769-6.990167-7.772159Z"/>
      <path d="M167.226288,43.703559l.032541.11606c3.691942-1.049875,4.729933-3.37741,4.716946-6.452289,0-.170259-.004338-.34385-.00978-.51844-.061862-2.004346-2.545554-9.506401-11.960995-9.510844-.065076,0-.136607,0-.208242.001111-9.73097.101955-14.212456,6.279811-14.199455,13.966338.011878,7.698525,4.845987,13.540083,14.575853,13.555299,5.814564-.032541,11.480421-3.209375,11.542283-5.18218-.030431-1.03477-1.541215-3.997809-3.032564-4.052118-1.280885.02721-3.529235,2.36008-7.868672,2.36008-2.718034.015216-5.737604-2.3904-6.065127-4.161515h12.477214v-.121502ZM164.72738,36.44329c-.258109.735345-2.213699,1.229907-4.618204,1.249454l-5.831896.03032c.801539-2.625741,3.551004-4.886087,6.39043-4.886087h.009774c.657268,0,1.322089.121502,1.975026.386165,1.243012.502114,2.231025,1.432707,2.223473,2.488021,0,.233231-.046646.475018-.148602.732127Z"/>
      <path class="st3" d="M172.387922,15.16892c-.746229-.944698-1.982689-2.026004-3.836206-2.026004-.176818,0-.360183.008663-.547767.029321-1.321089.142046-2.300439,1.222244-2.485914,2.111633-.076966.356844-.114943.703915-.114943,1.043433,0,1.098631.383937,2.13118,1.05742,3.148513.34496.521772,1.621514,2.113965,3.100867,3.528236.561872.534652,1.313537,1.160493,1.923049,1.650723.469573.376391.853516.674705,1.00756.791765.152933-.11706.539098-.415374,1.007567-.791765.610615-.49023,1.362287-1.116071,1.921931-1.650723,1.479354-1.414271,2.748355-3.010795,3.104088-3.529235.63239-.92082,1.045543-2.040112,1.045543-3.199605,0-.32752-.032541-.657265-.105176-.991341-.185475-.889389-1.165935-1.969587-2.485914-2.111633-.188695-.020658-.371949-.029321-.54876-.029321-1.850303,0-3.087873,1.082416-3.835102,2.026004-.0261.035762-.062972.05642-.101955.05642h-.002221c-.042315,0-.079188-.020658-.104066-.05642Z"/>
      <path d="M145.142828,28.318618h-9.035718c-1.711579,0-2.597643.833969-2.62041,1.904501v1.902391c.020547,1.004339.811312,1.792772,2.320986,1.886065,0,.003332.002221.004331.002221.006553.820975.11495.898052.625838.92082,1.220133.004331.399159-.290651,1.083526-.533656,1.817761l-3.853538,8.967523c0,.007552-3.82755-8.967523-3.82755-8.967523-.242894-.734235-.535766-1.418602-.530324-1.817761.021657-.594296.096513-1.105184.92082-1.220133v-.006553c1.51079-.093293,2.300445-.881726,2.319875-1.886065v-1.902391c-.01943-1.070532-.905604-1.904501-2.618189-1.904501h-9.037939c-1.709253,0-2.595421.833969-2.618184,1.904501v1.714695c.020541.94803.720124,1.707254,2.067202,1.87096-.004331.005439-.004331.008663-.004331.010884.476125.071524.774439.326413,1.18115,1.24512l7.128996,17.917504c.365507,1.000007,1.10419,1.32431,1.913275,1.314537h6.236386c.811312.009774,1.548879-.314529,1.915385-1.314537l7.130217-17.917504c.40449-.918707.70492-1.173595,1.181039-1.24512-.00211-.002221-.00211-.005445-.005331-.010884,1.348078-.163706,2.047661-.92293,2.064986-1.87096v-1.714695c-.019547-1.070532-.905604-1.904501-2.618189-1.904501Z"/>
      <g>
        <path class="st3" d="M27.679241,56.181468c-.44993-.307744-1.58352-1.086844-2.964961-2.082143-1.63757-1.17644-3.951009-2.886564-5.667949-4.355166-4.365879-3.726044-8.119678-7.902991-9.158802-9.3117-2.126942-2.868547-3.161196-5.63435-3.16217-8.455665.000974-.924207.115404-1.869839.339882-2.811088.578968-2.487762,3.642777-5.409385,7.582099-5.788223.550726-.05405,1.102913-.081805,1.641465-.081805,4.437459,0,8.309583,1.826988,11.508274,5.429837l.010713-.014608.117352.007791c3.196743-3.598466,7.067407-5.42302,11.504378-5.42302.537579,0,1.089279.027755,1.639518.081805,3.940296.378837,7.005079,3.30046,7.584534,5.789683.207435.879409.313101,1.780729.313101,2.677668.001948,2.896789-1.112165,5.946964-3.136363,8.588112-1.025003,1.342973-4.755429,5.552058-9.157341,9.311213-1.729601,1.478341-4.03817,3.184569-5.669897,4.355166-1.381928.9953-2.514544,1.774399-2.964474,2.082143l-.17968.123682-.17968-.123682Z"/>
        <path d="M39.429469,23.613563c.518436,0,1.056425.026097,1.608521.080299,3.879535.373062,6.761268,3.207151,7.3058,5.545576.20602.871952.304762,1.742908.304762,2.605198.002115,3.037895-1.215806,5.97494-3.070558,8.394782-1.040083,1.362169-4.770006,5.555231-9.111676,9.263501-1.649614,1.409934-3.856756,3.053096-5.648532,4.338321-1.379622.993565-2.509788,1.770116-2.958821,2.078081-.449017-.307965-1.580195-1.084516-2.958707-2.078081-1.790651-1.285225-3.998919-2.928387-5.647528-4.338321-4.343769-3.70827-8.098679-7.889341-9.109469-9.259179-1.981568-2.672502-3.098747-5.380755-3.099751-8.266832.001004-.890502.107286-1.800435.330744-2.73747.544426-2.338425,3.427285-5.172513,7.303693-5.545576.553092-.054202,1.089971-.080299,1.610636-.080299,5.439172,0,9.070468,2.844976,11.271075,5.323228.068308.092183.18003.1486.299307.1486h.002222c.120388,0,.233235-.058531.301543-.15515,2.200591-2.477141,5.829673-5.316677,11.266738-5.316677M39.429469,22.977661c-4.452752,0-8.344415,1.796273-11.571218,5.340187-3.228036-3.5438-7.119227-5.340187-11.569666-5.340187-.545644,0-1.108406.028045-1.672652.083327-4.133435.397805-7.243168,3.380501-7.861015,6.034255-.229119.96072-.346235,1.931132-.347308,2.880949.001012,2.893115,1.055862,5.721025,3.224848,8.646293,1.044952,1.416135,4.819644,5.618251,9.207397,9.364061,1.729061,1.478752,4.048442,3.193372,5.689625,4.371311,1.403711,1.011734,2.541485,1.792096,2.969807,2.085879l.359679.246679.359664-.246679c.381903-.261927,1.544055-1.05899,2.970773-2.08648,1.634123-1.172134,3.948749-2.882623,5.690074-4.370946,4.423064-3.777781,8.172564-8.010239,9.203935-9.36098,2.066044-2.695502,3.203103-5.814365,3.201049-8.781136,0-.921491-.108267-1.847196-.321805-2.750975-.617543-2.651913-3.728121-5.634647-7.863792-6.032338-.562055-.055176-1.12414-.083221-1.669396-.083221h0Z"/>
      </g>
      <g>
        <path class="st0" d="M31.674561,52.949179c-.448956-.30677-1.584007-1.089765-2.964961-2.084091-1.634161-1.171571-3.945165-2.879747-5.66941-4.35614-4.35614-3.716305-8.114809-7.898122-9.159289-9.310726-2.124994-2.870008-3.158762-5.635811-3.159736-8.454691,0-.920798.113943-1.86643.338421-2.811088.577994-2.488249,3.64229-5.410359,7.585021-5.789196.536118-.055024,1.087818-.082779,1.638544-.082779,4.435024,0,8.307149,1.826501,11.508761,5.428376l.008278-.010713.112482.016556c3.197717-3.60577,7.070328-5.434219,11.511196-5.434219.530275,0,1.082461.027755,1.640978.082779,3.940783.378837,7.004592,3.300947,7.583073,5.790657.207435.867722.313101,1.768556.313101,2.675233.000974,2.89825-1.112165,5.948912-3.134902,8.589085-1.036689,1.352712-4.781723,5.575918-9.158802,9.310726-1.736418,1.486132-4.041092,3.189439-5.668436,4.35614-1.382415.994326-2.515518,1.777321-2.966421,2.084091l-.179193.121734-.178706-.121734Z"/>
        <path d="M43.424059,20.378193c.519547,0,1.055315.027223,1.609518.08141,3.878531.373062,6.761382,3.207159,7.304804,5.54658.208242.870956.304762,1.741904.304762,2.603083.001004,3.039013-1.215913,5.976059-3.069439,8.395779-1.04232,1.360183-4.770022,5.555345-9.112802,9.262504-1.650717,1.412164-3.856748,3.055333-5.647422,4.33944-1.379622.992454-2.509788,1.773334-2.959924,2.079207-.447914-.305873-1.580195-1.086753-2.957702-2.079207-1.791663-1.284107-3.999923-2.927276-5.648532-4.33944-4.34278-3.70493-8.096465-7.886115-9.11058-9.258069-1.979476-2.673605-3.096533-5.380755-3.097643-8.265713,0-.891605.1074-1.801546.329748-2.737584.543323-2.339421,3.426159-5.173518,7.3058-5.54658.552103-.056409,1.087863-.08141,1.608536-.08141,5.440268,0,9.070354,2.845988,11.271059,5.322125.068308.095516.178927.151932.297207.151932h.003218c.117169,0,.227795-.05542.296096-.1465,2.199602-2.480458,5.830784-5.327557,11.273296-5.327557M43.424059,19.742283c-4.452318,0-8.34338,1.796821-11.569278,5.341412-3.230539-3.544713-7.122309-5.341412-11.571599-5.341412-.560145,0-1.123083.028501-1.673177.084712-4.133899.397493-7.244089,3.380896-7.860582,6.035336-.229492.966114-.346235,1.936618-.346235,2.881436.001126,2.889409,1.055208,5.716833,3.22249,8.644102,1.051389,1.422382,4.832372,5.629702,9.208918,9.363453,1.736327,1.487296,4.053166,3.198805,5.69082,4.372536,1.472719,1.061036,2.645271,1.86605,2.969533,2.087477l.357716.244275.358279-.243446c.129251-.087831,1.310797-.892602,2.973885-2.088961,1.630798-1.169471,3.942419-2.87789,5.68945-4.372445,4.396541-3.753053,8.161661-7.998499,9.204163-9.358918,2.064949-2.69573,3.201582-5.814814,3.200608-8.78278,0-.931039-.108404-1.856608-.3222-2.750746-.615641-2.650407-3.725496-5.63378-7.862392-6.031699-.571976-.055922-1.134313-.084331-1.6704-.084331h0Z"/>
      </g>
      <g>
        <path class="st1" d="M35.66988,49.714942c-.44993-.307744-1.58352-1.089765-2.964961-2.08117-2.395731-1.722784-4.303551-3.188465-5.670384-4.357114-4.365392-3.727991-8.118704-7.904452-9.157828-9.3117-2.125481-2.870008-3.159736-5.636298-3.16217-8.456152,0-.913981.11443-1.859126.340856-2.810602.579455-2.489223,3.643751-5.411333,7.58356-5.788223.54683-.055024,1.09853-.082779,1.638544-.082779,4.437459.000974,8.308123,1.825528,11.504865,5.42302l.008278-.010713.120273.018017c3.197717-3.602361,7.069841-5.42935,11.508761-5.430324.540013,0,1.091713.027755,1.640005.082779,3.940296.376889,7.004592,3.299,7.583073,5.789683.207435.86967.313101,1.770017.313101,2.674259.001948,2.89825-1.111678,5.948912-3.135389,8.590059-1.023055,1.341025-4.750072,5.549136-9.158315,9.312674-1.370241,1.172545-3.278061,2.638226-5.669897,4.357114-1.382415.991404-2.514544,1.773425-2.9635,2.080196l-.17968.123682-.179193-.122708Z"/>
        <path d="M47.419645,17.145051c.518436,0,1.055315.02599,1.608521.08141,3.878531.370848,6.761382,3.206055,7.304697,5.545469.208242.870956.304868,1.740793.304868,2.601979.0021,3.04122-1.215913,5.977162-3.069439,8.396882-1.040098,1.363401-4.771132,5.55746-9.112794,9.264612-1.649614,1.411045-3.855759,3.052122-5.648525,4.340551-1.379622.989228-2.509804,1.769012-2.957717,2.075981-.449025-.306968-1.580309-1.086753-2.958828-2.075981-1.791762-1.288428-3.998911-2.929506-5.649636-4.340551-4.340543-3.707152-8.096457-7.889334-9.108457-9.259172-1.980473-2.674602-3.097537-5.380649-3.099766-8.267829,0-.89162.109508-1.800435.331871-2.736473.544533-2.339414,3.426273-5.174621,7.304796-5.545469.553092-.05542,1.089971-.08141,1.608422-.08141,5.438168.001111,9.06725,2.840548,11.266844,5.316685.068308.096512.181141.156155.302525.156155h.002229c.120395,0,.229903-.05631.299314-.149604,2.200705-2.479355,5.830784-5.322125,11.271075-5.323236M47.419645,16.509142h-.000122c-4.452729.000928-8.343897,1.7973-11.570069,5.34072-3.225891-3.543054-7.117964-5.339791-11.571667-5.34072-.54941,0-1.111891.028471-1.67196.08459-4.132195.395104-7.242575,3.378325-7.860734,6.034035-.230968.972277-.348426,1.942408-.348426,2.880637.002237,2.890863,1.057011,5.718918,3.22462,8.646247,1.047676,1.418136,4.824308,5.621553,9.206529,9.364305,1.372311,1.173062,3.287237,2.644495,5.691368,4.373274,1.419414,1.018589,2.550668,1.797171,2.971192,2.084654l.359314.245652.359055-.246055c.426618-.292398,1.569931-1.080727,2.968772-2.083741,2.398851-1.724009,4.313495-3.195525,5.69133-4.374096,4.427317-3.780299,8.17512-8.012126,9.205038-9.362159,2.065162-2.696019,3.201795-5.815567,3.199756-8.783016,0-.929738-.10845-1.854919-.322307-2.749415-.615839-2.651723-3.72583-5.635066-7.862651-6.030596-.5573-.055846-1.119803-.084316-1.669038-.084316h0Z"/>
      </g>
      <g>
        <path class="st3" d="M39.664713,46.479731c-.44993-.30677-1.584981-1.086844-2.966908-2.082143-1.63757-1.177414-3.950035-2.887538-5.667949-4.353219-4.360036-3.72507-8.116269-7.902991-9.158802-9.312187-2.125968-2.872443-3.159736-5.63922-3.159736-8.457125,0-.920311.113943-1.865943.339395-2.811088.578481-2.488249,3.64229-5.409385,7.583073-5.787249.543422-.055511,1.095122-.083753,1.638544-.083753,4.438433.001461,8.309583,1.827475,11.506326,5.427402l.007791-.010226.1193.013147c3.194795-3.601875,7.066433-5.428863,11.508274-5.430324.543422,0,1.095609.028242,1.641952.083753,3.937861.377863,7.002157,3.299,7.582099,5.78871.208409.876974.314561,1.777808.314561,2.676207.000974,2.896789-1.113138,5.946964-3.137336,8.588112-1.023542,1.341512-4.75202,5.55011-9.158802,9.314622-1.366833,1.166702-3.274166,2.631409-5.668436,4.353219-1.382415.9953-2.516005,1.775373-2.964961,2.082143l-.179193.121734-.179193-.121734Z"/>
        <path d="M51.414234,13.910799c.519547,0,1.055315.02599,1.60951.082414,3.879642.372066,6.760393,3.207151,7.304819,5.544465.207131.872059.305873,1.744019.305873,2.604087.001111,3.040116-1.218028,5.976158-3.071554,8.394775-1.039109,1.361187-4.771148,5.55746-9.112802,9.265723-1.648617,1.407834-3.85687,3.049893-5.647528,4.337325-1.379622.993451-2.510793,1.77112-2.958707,2.076985-.449025-.305865-1.58142-1.083534-2.959924-2.076985-1.791777-1.287432-3.997815-2.92949-5.647422-4.337325-4.340551-3.708263-8.096579-7.889334-9.109576-9.259172-1.98048-2.67572-3.097651-5.380649-3.097651-8.267829,0-.891605.1074-1.801554.330851-2.737584.543437-2.337314,3.426288-5.172399,7.303701-5.544465.5531-.056424,1.089971-.082414,1.608407-.082414,5.439294.002222,9.068376,2.842755,11.26896,5.321006.069419.094405.181156.152944.300433.152944h.002222c.119277,0,.229895-.057428.299314-.150722,2.199594-2.479469,5.829673-5.321006,11.271075-5.323228M51.414234,13.27489h-.000259c-4.455491.001826-8.346979,1.798563-11.570861,5.34164-3.225761-3.542818-7.117417-5.339814-11.570625-5.34164-.552948,0-1.115801.028851-1.673208.085716-4.13183.396458-7.241449,3.378933-7.858535,6.033076-.230215.964288-.347384,1.935028-.347384,2.88158,0,2.888397,1.054074,5.716574,3.222436,8.646148,1.048924,1.41841,4.826826,5.621667,9.207648,9.364343,1.729365,1.475907,4.048434,3.191166,5.689412,4.370246,1.393804,1.004483,2.54344,1.793527,2.972995,2.08613l.358439.244153.358158-.244572c.539755-.368581,1.643573-1.129725,2.971694-2.086092,2.400015-1.725538,4.314157-3.195837,5.688887-4.369782,4.423581-3.778245,8.173698-8.012103,9.205304-9.363445,2.065664-2.695433,3.203088-5.814205,3.201993-8.780863,0-.922639-.108694-1.848216-.323068-2.7508-.617634-2.651571-3.727961-5.63397-7.862803-6.030504-.554743-.0565-1.117917-.085336-1.670225-.085336h0Z"/>
      </g>
    </g>
  </g>
</svg>